<svg width="19" height="19" viewBox="0 0 19 19" fill="none" xmlns="http://www.w3.org/2000/svg">
<g id="icono">
<path id="Vector" d="M8.5846 13.2828H10.0978V12.5262H10.8543C11.2705 12.5262 11.6109 12.1858 11.6109 11.7696V9.4999C11.6109 9.08378 11.2705 8.74332 10.8543 8.74332H8.5846V7.98674H11.6109V6.47358H10.0978V5.717H8.5846V6.47358H7.82802C7.4119 6.47358 7.07144 6.81404 7.07144 7.23016V9.4999C7.07144 9.91602 7.4119 10.2565 7.82802 10.2565H10.0978V11.0131H7.07144V12.5262H8.5846V13.2828ZM15.3938 3.44727H3.28855C2.44875 3.44727 1.78296 4.12062 1.78296 4.96042L1.77539 14.0394C1.77539 14.8792 2.44875 15.5525 3.28855 15.5525H15.3938C16.2336 15.5525 16.907 14.8792 16.907 14.0394V4.96042C16.907 4.12062 16.2336 3.44727 15.3938 3.44727ZM15.3938 14.0394H3.28855V4.96042H15.3938V14.0394Z" fill="#49A197"/>
</g>
</svg>
