<svg width="24" height="25" viewBox="0 0 24 25" fill="none" xmlns="http://www.w3.org/2000/svg">
<path fill-rule="evenodd" clip-rule="evenodd" d="M14 2.04785C14.2652 2.04785 14.5196 2.15321 14.7071 2.34074L19.7071 7.34074C19.8946 7.52828 20 7.78264 20 8.04785V19.0479C20 20.7047 18.6569 22.0479 17 22.0479H7C5.34315 22.0479 4 20.7047 4 19.0479V5.04785C4 3.391 5.34315 2.04785 7 2.04785H14ZM11.999 4.04785H7C6.44772 4.04785 6 4.49557 6 5.04785V19.0479C6 19.6001 6.44772 20.0479 7 20.0479H17C17.5523 20.0479 18 19.6001 18 19.0479V10.0479H13C12.4872 10.0479 12.0645 9.66181 12.0067 9.16447L12 9.04785L11.999 4.04785ZM17.586 8.04785L13.999 4.46185L14 8.04785H17.586Z" fill="white"/>
</svg>
