<svg width="16" height="16" viewBox="0 0 16 16" fill="none" xmlns="http://www.w3.org/2000/svg">
<g id="ic20-more-ver">
<path id="Icon" fill-rule="evenodd" clip-rule="evenodd" d="M8.00033 11.3332C8.73671 11.3332 9.33366 11.9301 9.33366 12.6665C9.33366 13.4029 8.73671 13.9998 8.00033 13.9998C7.26395 13.9998 6.66699 13.4029 6.66699 12.6665C6.66699 11.9301 7.26395 11.3332 8.00033 11.3332ZM8.00033 6.66658C8.73671 6.66658 9.33366 7.26353 9.33366 7.99991C9.33366 8.73629 8.73671 9.33325 8.00033 9.33325C7.26395 9.33325 6.66699 8.73629 6.66699 7.99991C6.66699 7.26353 7.26395 6.66658 8.00033 6.66658ZM8.00033 2C8.73671 2 9.33366 2.59695 9.33366 3.33333C9.33366 4.06971 8.73671 4.66667 8.00033 4.66667C7.26395 4.66667 6.66699 4.06971 6.66699 3.33333C6.66699 2.59695 7.26395 2 8.00033 2Z" fill="#1E293B"/>
</g>
</svg>
