<svg width="24" height="25" viewBox="0 0 24 25" fill="none" xmlns="http://www.w3.org/2000/svg">
<g id="ic24-inbox">
<path id="Icon" fill-rule="evenodd" clip-rule="evenodd" d="M19 2.04785C20.6569 2.04785 22 3.391 22 5.04785V19.0479C22 20.7047 20.6569 22.0479 19 22.0479H5C3.34315 22.0479 2 20.7047 2 19.0479V5.04785C2 3.391 3.34315 2.04785 5 2.04785H19ZM4 19.0479C4 19.6001 4.44772 20.0479 5 20.0479H19C19.5523 20.0479 20 19.6001 20 19.0479V14.0479H16.9C16.4512 16.2588 14.5435 17.9399 12.2256 18.0429L12 18.0479C9.65663 18.0479 7.68979 16.4358 7.14797 14.2601L7.10002 14.0479H4V19.0479ZM19 4.04785H5C4.44772 4.04785 4 4.49557 4 5.04785V12.0479H8C8.51284 12.0479 8.93551 12.4339 8.99327 12.9312L9 13.0479C9 14.7047 10.3431 16.0479 12 16.0479C13.5977 16.0479 14.9037 14.7989 14.9949 13.2241L15.0067 12.9312C15.06 12.4721 15.4243 12.1079 15.8834 12.0546L16 12.0479H20V5.04785C20 4.49557 19.5523 4.04785 19 4.04785Z" fill="white"/>
</g>
</svg>
