<svg width="20" height="21" viewBox="0 0 20 21" fill="none" xmlns="http://www.w3.org/2000/svg">
<path fill-rule="evenodd" clip-rule="evenodd" d="M6.5 17.0479C7.32843 17.0479 8 17.7194 8 18.5479C8 19.3763 7.32843 20.0479 6.5 20.0479C5.67157 20.0479 5 19.3763 5 18.5479C5 17.7194 5.67157 17.0479 6.5 17.0479ZM15.5 17.0479C16.3284 17.0479 17 17.7194 17 18.5479C17 19.3763 16.3284 20.0479 15.5 20.0479C14.6716 20.0479 14 19.3763 14 18.5479C14 17.7194 14.6716 17.0479 15.5 17.0479ZM1 0.0478516H3C3.4556 0.0478516 3.84831 0.354692 3.96506 0.785591L3.98837 0.895794L4.4733 4.04785H19C19.5998 4.04785 20.0549 4.56853 19.9951 5.1482L19.9762 5.26478L18.3242 12.6986C18.0325 14.0116 16.9059 14.9622 15.5779 15.0424L15.3957 15.0479H6.71584C5.29435 15.0479 4.07697 14.0522 3.78265 12.6778L3.75072 12.504L2.14208 2.04785H1C0.447715 2.04785 0 1.60014 0 1.04785C0 0.535016 0.38604 0.112344 0.883379 0.0545793L1 0.0478516H3H1ZM17.7534 6.04785H4.781L5.72747 12.1999C5.79674 12.6502 6.15973 12.9917 6.60337 13.0416L6.71584 13.0479H15.3957C15.8253 13.0479 16.2021 12.7743 16.3402 12.3763L16.3718 12.2648L17.7534 6.04785Z" fill="white"/>
</svg>
