<svg width="24" height="25" viewBox="0 0 24 25" fill="none" xmlns="http://www.w3.org/2000/svg">
<path fill-rule="evenodd" clip-rule="evenodd" d="M12 2.04785C17.5228 2.04785 22 6.525 22 12.0479C22 17.5707 17.5228 22.0479 12 22.0479C6.47715 22.0479 2 17.5707 2 12.0479C2 6.525 6.47715 2.04785 12 2.04785ZM12 4.04785C7.58172 4.04785 4 7.62957 4 12.0479C4 16.4661 7.58172 20.0479 12 20.0479C16.4183 20.0479 20 16.4661 20 12.0479C20 7.62957 16.4183 4.04785 12 4.04785ZM12 18.0479C14.2091 18.0479 16 16.257 16 14.0479H8L8.0049 14.2475C8.10892 16.3639 9.8578 18.0479 12 18.0479ZM8.5 8.04785C9.32843 8.04785 10 8.71942 10 9.54785C10 10.3763 9.32843 11.0479 8.5 11.0479C7.67157 11.0479 7 10.3763 7 9.54785C7 8.71942 7.67157 8.04785 8.5 8.04785ZM17 9.54785C17 8.71942 16.3284 8.04785 15.5 8.04785C14.6716 8.04785 14 8.71942 14 9.54785C14 10.3763 14.6716 11.0479 15.5 11.0479C16.3284 11.0479 17 10.3763 17 9.54785Z" fill="white"/>
</svg>
