<svg width="50" height="51" viewBox="0 0 50 51" fill="none" xmlns="http://www.w3.org/2000/svg">
<g id="icons">
<g id="imaginIcon">
<rect id="background" y="0.317383" width="50" height="50" rx="9.48406" fill="#ECECF9"/>
<g id="imagen">
<path id="Vector" d="M25.3074 14.9263C19.6193 14.9263 15 19.5456 15 25.2336C14.995 27.2881 15.6083 29.2965 16.7602 30.9977C17.8801 32.6538 19.4552 33.9505 21.2955 34.7315C21.3437 34.7542 21.3961 34.7668 21.4494 34.7688C21.5027 34.7708 21.5559 34.762 21.6057 34.743C21.6556 34.7239 21.7011 34.6951 21.7395 34.658C21.7779 34.621 21.8084 34.5766 21.8292 34.5274C21.85 34.4783 21.8607 34.4255 21.8606 34.3721C21.8606 34.3188 21.8497 34.266 21.8287 34.217C21.8078 34.1679 21.7771 34.1235 21.7386 34.0866C21.7001 34.0497 21.6546 34.0209 21.6047 34.002C20.4745 33.5238 19.4476 32.8313 18.5806 31.9627C17.6956 31.0802 16.9937 30.0314 16.5153 28.8768C16.0369 27.7221 15.7914 26.4843 15.7929 25.2344C15.7929 19.9745 20.0483 15.7199 25.3074 15.7199C25.4125 15.7199 25.5134 15.6781 25.5877 15.6038C25.6621 15.5294 25.7038 15.4286 25.7038 15.3235C25.7038 15.2183 25.6621 15.1174 25.5877 15.0431C25.5134 14.9687 25.4125 14.9263 25.3074 14.9263ZM29.1663 15.7033C29.0735 15.7012 28.9829 15.7318 28.9103 15.7897C28.8377 15.8476 28.7878 15.9293 28.7692 16.0202C28.7506 16.1112 28.7645 16.2058 28.8085 16.2876C28.8526 16.3693 28.9239 16.4331 29.0101 16.4676C30.1405 16.9455 31.1674 17.6381 32.0341 18.5069C32.9184 19.3897 33.6198 20.4382 34.0982 21.5925C34.5766 22.7468 34.8225 23.9841 34.8219 25.2336C34.8219 30.4936 30.5665 34.7481 25.3074 34.7481C25.2023 34.7481 25.1014 34.7898 25.0271 34.8642C24.9527 34.9385 24.911 35.0394 24.911 35.1446C24.911 35.2497 24.9527 35.3505 25.0271 35.4248C25.1014 35.4992 25.2023 35.541 25.3074 35.541C30.9955 35.541 35.6148 30.9217 35.6148 25.2336C35.6195 23.1797 35.0062 21.1717 33.8546 19.471C32.7351 17.8144 31.1599 16.5174 29.3193 15.7366C29.271 15.7157 29.219 15.7038 29.1663 15.7033Z" fill="black"/>
<path id="Vector_2" d="M25.3078 18.8906C21.8097 18.8906 18.9648 21.7355 18.9648 25.2336C18.9648 28.7326 21.8097 31.5766 25.3078 31.5766C28.806 31.5766 31.6508 28.7326 31.6508 25.2336C31.6508 21.7355 28.806 18.8906 25.3078 18.8906ZM25.3078 19.6835C28.3778 19.6835 30.858 22.1636 30.858 25.2336C30.858 28.3036 28.3778 30.7837 25.3078 30.7837C22.2378 30.7837 19.7577 28.3036 19.7577 25.2336C19.7577 22.1636 22.2378 19.6835 25.3078 19.6835Z" fill="#2B79C2"/>
<path id="Vector_3" fill-rule="evenodd" clip-rule="evenodd" d="M26.4885 33.136C26.3856 33.1388 26.2878 33.1814 26.2158 33.255L24.63 34.8407C24.5931 34.8776 24.5638 34.9213 24.5438 34.9695C24.5238 35.0176 24.5136 35.0693 24.5136 35.1214C24.5136 35.1736 24.5238 35.2252 24.5438 35.2734C24.5638 35.3215 24.5931 35.3653 24.63 35.4021L26.2158 36.9878C26.2526 37.0247 26.2963 37.0539 26.3444 37.0739C26.3925 37.0939 26.4441 37.1041 26.4962 37.1042C26.5482 37.1042 26.5998 37.0941 26.648 37.0742C26.6961 37.0543 26.7399 37.025 26.7767 36.9882C26.8136 36.9514 26.8428 36.9077 26.8628 36.8596C26.8828 36.8115 26.8931 36.7599 26.8931 36.7078C26.8931 36.6558 26.8829 36.6041 26.863 36.556C26.8431 36.5078 26.8139 36.4641 26.7771 36.4273L25.4713 35.1214L26.7771 33.8156C26.8341 33.7598 26.8729 33.6882 26.8885 33.61C26.9041 33.5318 26.8958 33.4507 26.8646 33.3773C26.8334 33.304 26.7809 33.2417 26.7138 33.1987C26.6467 33.1556 26.5682 33.1338 26.4885 33.136ZM24.1131 13.3174C24.034 13.3172 23.9566 13.3407 23.891 13.3848C23.8254 13.429 23.7744 13.4918 23.7448 13.5652C23.7151 13.6385 23.708 13.7189 23.7245 13.7963C23.741 13.8736 23.7802 13.9444 23.8371 13.9992L25.143 15.3043L23.8371 16.6094C23.8003 16.6462 23.7711 16.69 23.7512 16.7381C23.7313 16.7862 23.7211 16.8379 23.7212 16.89C23.7212 16.9421 23.7315 16.9936 23.7515 17.0417C23.7714 17.0898 23.8007 17.1335 23.8376 17.1704C23.8744 17.2072 23.9181 17.2363 23.9663 17.2562C24.0144 17.2761 24.066 17.2863 24.1181 17.2863C24.1702 17.2863 24.2218 17.276 24.2699 17.256C24.318 17.236 24.3617 17.2068 24.3985 17.17L25.9842 15.5842C26.0586 15.5099 26.1003 15.409 26.1003 15.3039C26.1003 15.1988 26.0586 15.098 25.9842 15.0236L24.3985 13.4379C24.3615 13.3997 24.3171 13.3694 24.268 13.3486C24.219 13.3279 24.1663 13.3173 24.1131 13.3174Z" fill="black"/>
<path id="Vector_4" d="M26.5074 26.7394C26.5074 26.6141 26.4855 26.4986 26.4416 26.3929C26.3977 26.2872 26.3264 26.1883 26.2275 26.0963C26.1324 26.0049 26.0058 25.9203 25.8477 25.8426C25.6939 25.7644 25.5071 25.6891 25.2872 25.6167C24.9938 25.5363 24.7298 25.443 24.4951 25.3368C24.2646 25.2284 24.0669 25.1021 23.902 24.9578C23.7403 24.8129 23.6155 24.6459 23.5278 24.4567C23.4432 24.2675 23.4009 24.0491 23.4009 23.8018C23.4009 23.5734 23.4379 23.3646 23.5119 23.1754C23.5886 22.9862 23.6964 22.8223 23.8354 22.6838C23.9781 22.5443 24.1505 22.4301 24.3524 22.3413C24.5538 22.252 24.7792 22.192 25.0287 22.1613V21.2432H25.8041V22.1661C26.3169 22.2353 26.7125 22.4341 26.9911 22.7623C27.2733 23.0879 27.4145 23.533 27.4145 24.0975H26.4527C26.4527 23.9114 26.4289 23.7405 26.3813 23.5845C26.3369 23.4286 26.2709 23.2938 26.1831 23.1802C26.0954 23.066 25.9854 22.9769 25.8533 22.913C25.7211 22.849 25.5708 22.817 25.4021 22.817C25.2267 22.817 25.0747 22.8405 24.9462 22.8876C24.8178 22.9352 24.7094 23.002 24.6212 23.0882C24.5371 23.1717 24.4732 23.2732 24.4293 23.3926C24.3891 23.5121 24.369 23.6443 24.369 23.7891C24.369 23.9228 24.3891 24.0439 24.4293 24.1522C24.4732 24.2579 24.5445 24.3552 24.6434 24.444C24.7427 24.5333 24.8712 24.6182 25.0287 24.6985C25.1899 24.7767 25.3879 24.8534 25.6226 24.9284C25.9228 25.0146 26.1884 25.1119 26.4194 25.2202C26.6504 25.3259 26.8446 25.4499 27.0022 25.5921C27.1597 25.7337 27.2786 25.8976 27.359 26.0837C27.4398 26.2703 27.4803 26.4859 27.4803 26.7306C27.4803 26.9701 27.4382 27.1858 27.3542 27.3776C27.2696 27.5669 27.1507 27.731 26.9974 27.87C26.8431 28.009 26.6559 28.1203 26.4361 28.2038C26.2162 28.2873 25.9688 28.3428 25.6939 28.3703V29.1719H24.9296V28.3711C24.6986 28.3463 24.475 28.2947 24.2588 28.2165C24.0426 28.1388 23.8502 28.0262 23.6816 27.8787C23.5167 27.7307 23.3848 27.5457 23.286 27.3237C23.1871 27.098 23.1377 26.8282 23.1377 26.5142H24.105C24.105 26.7505 24.1399 26.9466 24.2097 27.1025C24.2794 27.2584 24.3711 27.3821 24.4848 27.4736C24.5979 27.5655 24.7242 27.6295 24.8638 27.6654C25.0028 27.7014 25.1421 27.7194 25.2816 27.7194C25.4756 27.7194 25.6479 27.6972 25.7986 27.6528C25.9519 27.6052 26.0801 27.5396 26.1831 27.4561C26.2894 27.37 26.37 27.2669 26.425 27.1469C26.4799 27.0253 26.5074 26.89 26.5074 26.7394Z" fill="#2B79C2"/>
</g>
</g>
</g>
</svg>
