<svg width="51" height="51" viewBox="0 0 51 51" fill="none" xmlns="http://www.w3.org/2000/svg">
<g id="IconsRentability">
<g id="iconsRentability">
<g id="Group 2608617">
<rect id="Rectangle 13" x="0.5" y="0.340332" width="50.084" height="50" rx="9.48406" fill="#E5EDF1"/>
<g id="Group">
<g id="Group_2">
<path id="Vector" fill-rule="evenodd" clip-rule="evenodd" d="M17.0896 21.718C17.2069 21.922 17.2742 22.1582 17.2742 22.4102C17.2742 23.1756 16.6527 23.7971 15.8873 23.7971C15.1215 23.7971 14.5 23.1756 14.5 22.4102C14.5 21.6444 15.1215 21.0229 15.8873 21.0229C16.2375 21.0229 16.558 21.1532 16.802 21.3677L18.2315 20.0683C18.1136 19.8646 18.0463 19.6281 18.0463 19.3762C18.0463 18.6104 18.6678 17.9889 19.4332 17.9889C20.199 17.9889 20.8205 18.6104 20.8205 19.3762C20.8205 19.4923 20.806 19.6049 20.7792 19.7129L22.6986 20.8298C22.9533 20.5172 23.341 20.3175 23.7749 20.3175C24.0241 20.3175 24.2582 20.3833 24.4603 20.4985L26.3264 18.2858C26.1629 18.0583 26.0666 17.7792 26.0666 17.4781C26.0666 16.7124 26.6885 16.0909 27.4539 16.0909C28.2193 16.0909 28.8409 16.7124 28.8409 17.4781C28.8409 17.6 28.8252 17.718 28.7956 17.8308L30.6173 19.0023C30.8705 18.7329 31.2298 18.5646 31.6284 18.5646C31.8833 18.5646 32.1222 18.6337 32.3277 18.7537L34.1757 16.5887C33.988 16.3521 33.8758 16.0528 33.8758 15.7276C33.8758 14.9619 34.4973 14.3403 35.2627 14.3403C36.0285 14.3403 36.65 14.9619 36.65 15.7276C36.65 16.493 36.0285 17.1146 35.2627 17.1146C34.9858 17.1146 34.7275 17.0331 34.5109 16.8931L32.6759 19.0431C32.8874 19.2866 33.0153 19.6043 33.0153 19.9515C33.0153 20.7173 32.3938 21.3388 31.6284 21.3388C30.8626 21.3388 30.2411 20.7173 30.2411 19.9515C30.2411 19.7473 30.2854 19.553 30.3651 19.3783L28.6076 18.2478C28.3587 18.6198 27.9348 18.8651 27.4539 18.8651C27.1534 18.8651 26.8749 18.7694 26.6477 18.6068L24.8118 20.7836C25.0297 21.0286 25.1621 21.3515 25.1621 21.7045C25.1621 22.4702 24.5406 23.0917 23.7749 23.0917C23.0094 23.0917 22.3879 22.4702 22.3879 21.7045C22.3879 21.5352 22.4184 21.3726 22.4739 21.2226L20.5972 20.1304C20.3498 20.5112 19.9208 20.7631 19.4332 20.7631C19.0833 20.7631 18.7631 20.6331 18.5188 20.4186L17.0896 21.718Z" fill="#13294B"/>
</g>
<g id="Group_3">
<path id="Vector_2" fill-rule="evenodd" clip-rule="evenodd" d="M18.3232 36.9401H15.2959V30.8672H18.3232V36.9401ZM17.8706 31.3197H15.7485V36.4876H17.8706V31.3197Z" fill="#13294B"/>
</g>
<g id="Group_4">
<path id="Vector_3" fill-rule="evenodd" clip-rule="evenodd" d="M21.9639 36.9403H18.9365V27.8271H21.9639V36.9403ZM21.5113 28.2797H19.3891V36.4878H21.5113V28.2797Z" fill="#13294B"/>
</g>
<g id="Group_5">
<path id="Vector_4" fill-rule="evenodd" clip-rule="evenodd" d="M25.5625 36.9404H22.5352V29.7109H25.5625V36.9404ZM25.1099 30.1633H22.9878V36.4881H25.1099V30.1633Z" fill="#13294B"/>
</g>
<g id="Group_6">
<path id="Vector_5" fill-rule="evenodd" clip-rule="evenodd" d="M29.1621 36.9404H26.1348V25.3506H29.1621V36.9404ZM28.7095 25.8029H26.5874V36.4881H28.7095V25.8029Z" fill="#13294B"/>
</g>
<g id="Group_7">
<path id="Vector_6" fill-rule="evenodd" clip-rule="evenodd" d="M32.7598 36.9403H29.7324V27.2935H32.7598V36.9403ZM32.3072 27.7457H30.185V36.4881H32.3072V27.7457Z" fill="#13294B"/>
</g>
<g id="Group_8">
<path id="Vector_7" fill-rule="evenodd" clip-rule="evenodd" d="M36.3574 36.94H33.3301V22.4487H36.3574V36.94ZM35.9048 22.9008H33.7827V36.4879H35.9048V22.9008Z" fill="#13294B"/>
</g>
</g>
</g>
</g>
</g>
</svg>
