<svg width="20" height="21" viewBox="0 0 20 21" fill="none" xmlns="http://www.w3.org/2000/svg">
<path fill-rule="evenodd" clip-rule="evenodd" d="M17 0.0478516C18.6569 0.0478516 20 1.391 20 3.04785V17.0479C20 18.7047 18.6569 20.0479 17 20.0479H3C1.34315 20.0479 0 18.7047 0 17.0479V3.04785C0 1.391 1.34315 0.0478516 3 0.0478516H17ZM2 17.0479C2 17.6001 2.44772 18.0479 3 18.0479H17C17.5523 18.0479 18 17.6001 18 17.0479V12.0479H14.9C14.4512 14.2588 12.5435 15.9399 10.2256 16.0429L10 16.0479C7.65663 16.0479 5.68979 14.4358 5.14797 12.2601L5.10002 12.0479H2V17.0479ZM17 2.04785H3C2.44772 2.04785 2 2.49557 2 3.04785V10.0479H6C6.51284 10.0479 6.93551 10.4339 6.99327 10.9312L7 11.0479C7 12.7047 8.34315 14.0479 10 14.0479C11.5977 14.0479 12.9037 12.7989 12.9949 11.2241L13.0067 10.9312C13.06 10.4721 13.4243 10.1079 13.8834 10.0546L14 10.0479H18V3.04785C18 2.49557 17.5523 2.04785 17 2.04785Z" fill="white"/>
</svg>
