<svg width="45" height="45" viewBox="0 0 45 45" fill="none" xmlns="http://www.w3.org/2000/svg">
<g id="spiner">
<g id="Group 2608628">
<path id="Union" fill-rule="evenodd" clip-rule="evenodd" d="M44.784 19.3896C45.0222 21.0963 43.603 22.5 41.8797 22.5C40.1564 22.5 38.7896 21.0904 38.4609 19.3988C37.9492 16.7658 36.7907 14.2835 35.0686 12.1852C32.6823 9.2774 29.3615 7.28698 25.672 6.55311C21.9826 5.81924 18.1529 6.38733 14.8354 8.16057C11.5179 9.93382 8.91787 12.8025 7.47833 16.2779C6.0388 19.7532 5.84882 23.6202 6.94078 27.2199C8.03274 30.8196 10.3391 33.9293 13.4668 36.0192C16.5945 38.1091 20.3501 39.0498 24.0937 38.6811C26.2275 38.4709 28.2821 37.8428 30.1471 36.8488L28.1316 33.9367L40.559 32.9176L35.2279 44.1896L33.716 42.0052C30.9701 43.5841 27.9019 44.5769 24.7054 44.8917C19.525 45.4019 14.3279 44.1001 9.99967 41.2081C5.67146 38.3161 2.47992 34.0128 0.968848 29.0314C-0.542227 24.0501 -0.27934 18.6989 1.71272 13.8897C3.70477 9.08041 7.30274 5.11066 11.8936 2.65681C16.4844 0.202954 21.7841 -0.583175 26.8895 0.432367C31.995 1.44791 36.5904 4.20229 39.8927 8.22619C42.5317 11.4418 44.2145 15.3091 44.784 19.3896Z" fill="url(#paint0_angular_5507_102581)"/>
</g>
</g>
<defs>
<radialGradient id="paint0_angular_5507_102581" cx="0" cy="0" r="1" gradientUnits="userSpaceOnUse" gradientTransform="translate(22.5 22.5) rotate(-36.2538) scale(18.6011 18.5226)">
<stop offset="0.0545191" stop-color="#1E22AA" stop-opacity="0"/>
<stop offset="0.115243" stop-color="#1E22AA" stop-opacity="0"/>
<stop offset="0.201075" stop-color="#1E22AA"/>
<stop offset="0.544972" stop-color="#1E22AA" stop-opacity="0.643176"/>
<stop offset="0.789785" stop-color="#1E22AA" stop-opacity="0.338219"/>
</radialGradient>
</defs>
</svg>
