<svg width="18" height="17" viewBox="0 0 18 17" fill="none" xmlns="http://www.w3.org/2000/svg">
<path id="Star 1" d="M7.97541 0.927049C8.27476 0.00573801 9.57817 0.00574028 9.87752 0.927051L11.1716 4.90983C11.3055 5.32185 11.6894 5.60081 12.1227 5.60081H16.3104C17.2791 5.60081 17.6819 6.84043 16.8982 7.40983L13.5102 9.87132C13.1597 10.126 13.0131 10.5773 13.147 10.9894L14.441 14.9721C14.7404 15.8934 13.6859 16.6596 12.9022 16.0902L9.51425 13.6287C9.16376 13.374 8.68917 13.374 8.33868 13.6287L4.95072 16.0902C4.16701 16.6596 3.11253 15.8934 3.41188 14.9721L4.70597 10.9894C4.83984 10.5773 4.69318 10.126 4.3427 9.87132L0.954739 7.40983C0.171026 6.84043 0.573803 5.60081 1.54253 5.60081H5.73027C6.1635 5.60081 6.54745 5.32185 6.68132 4.90983L7.97541 0.927049Z" fill="white"/>
</svg>
