<svg width="19" height="19" viewBox="0 0 19 19" fill="none" xmlns="http://www.w3.org/2000/svg">
<path d="M6.8906 10.6943C7.00471 10.6943 7.11121 10.6867 7.21771 10.6715C7.57525 11.5463 8.43485 12.1625 9.43139 12.1625C10.4279 12.1625 11.2875 11.5463 11.6451 10.6715C11.7516 10.6867 11.8657 10.6943 11.9722 10.6943C13.2882 10.6943 14.3608 9.62167 14.3608 8.30563C14.3608 7.76552 14.1706 7.24824 13.8511 6.83745C14.1782 6.42667 14.3608 5.90938 14.3608 5.36927C14.3608 4.05324 13.2882 2.98063 11.9722 2.98063C11.8581 2.98063 11.7516 2.98824 11.6451 3.00345C11.2875 2.12863 10.4279 1.51245 9.43139 1.51245C8.43485 1.51245 7.57525 2.12863 7.21771 3.00345C7.11121 2.98824 6.9971 2.98063 6.8906 2.98063C5.57457 2.98063 4.50196 4.05324 4.50196 5.36927C4.50196 5.90938 4.69214 6.42667 5.01164 6.83745C4.68453 7.24824 4.49435 7.76552 4.49435 8.30563C4.49435 9.62167 5.56696 10.6943 6.8906 10.6943ZM9.43139 10.641C8.95975 10.641 8.57939 10.2683 8.56418 9.80424L8.65546 8.97506C8.89889 9.06634 9.15753 9.11959 9.43139 9.11959C9.70525 9.11959 9.9715 9.06634 10.2149 8.97506L10.2986 9.80424C10.2834 10.2683 9.90303 10.641 9.43139 10.641ZM11.9722 9.17284C11.7896 9.17284 11.6222 9.11959 11.4853 9.0207L10.8691 8.58709C11.2875 8.24477 11.5842 7.75792 11.6755 7.19499L12.3449 7.51449C12.6492 7.65902 12.847 7.96331 12.847 8.29802C12.847 8.78488 12.4514 9.17284 11.9722 9.17284ZM11.4777 4.6542C11.6299 4.55531 11.7972 4.50206 11.9722 4.50206C12.4514 4.50206 12.8394 4.89002 12.8394 5.36927C12.8394 5.70399 12.6492 6.00067 12.3373 6.15281L11.6679 6.47231C11.5766 5.90938 11.2799 5.42252 10.8539 5.0802L11.4777 4.6542ZM9.43139 3.03388C9.90303 3.03388 10.2834 3.40663 10.2986 3.87067L10.2149 4.69984C9.9715 4.60856 9.70525 4.55531 9.43139 4.55531C9.15753 4.55531 8.89889 4.60856 8.65546 4.69984L8.56418 3.87067C8.57939 3.40663 8.95975 3.03388 9.43139 3.03388ZM6.8906 4.50206C7.07318 4.50206 7.24053 4.55531 7.37746 4.6542L7.99364 5.0802C7.57525 5.42252 7.27857 5.90938 7.18728 6.47231L6.51785 6.15281C6.21357 6.00067 6.01578 5.70399 6.01578 5.36927C6.01578 4.89002 6.41135 4.50206 6.8906 4.50206ZM6.51785 7.52209L7.18728 7.20259C7.27857 7.76552 7.57525 8.25238 8.00125 8.5947L7.38507 9.01309C7.23293 9.11199 7.06557 9.16524 6.8906 9.16524C6.41135 9.16524 6.02339 8.77727 6.02339 8.29802C6.01578 7.97092 6.21357 7.67424 6.51785 7.52209ZM9.43139 17.4875C13.2121 17.4875 16.2778 14.4218 16.2778 10.641C12.4971 10.641 9.43139 13.7067 9.43139 17.4875ZM11.2875 15.6313C11.8276 14.1859 12.9763 13.0297 14.4217 12.4972C13.8816 13.9425 12.7329 15.0912 11.2875 15.6313ZM2.58496 10.641C2.58496 14.4218 5.65064 17.4875 9.43139 17.4875C9.43139 13.7067 6.36571 10.641 2.58496 10.641ZM4.4411 12.4972C5.88646 13.0373 7.04275 14.1859 7.57525 15.6313C6.12989 15.0912 4.98121 13.9425 4.4411 12.4972Z" fill="#5576D1"/>
</svg>
