<svg width="19" height="19" viewBox="0 0 19 19" fill="none" xmlns="http://www.w3.org/2000/svg">
<g id="icono">
<g id="Vector">
<path d="M16.2699 6.83841C15.1673 6.83841 14.5513 7.93347 14.8022 8.74716L12.1026 11.4544C11.8745 11.3859 11.5399 11.3859 11.3117 11.4544L9.37258 9.51522C9.63113 8.70153 9.01516 7.59887 7.9049 7.59887C6.80224 7.59887 6.17866 8.69393 6.43722 9.51522L2.96954 12.9753C2.15585 12.7243 1.06079 13.3403 1.06079 14.443C1.06079 15.2795 1.7452 15.9639 2.5817 15.9639C3.68437 15.9639 4.30033 14.8688 4.04938 14.0551L7.50946 10.5875C7.7376 10.6559 8.0722 10.6559 8.30033 10.5875L10.2395 12.5266C9.98094 13.3403 10.5969 14.443 11.7072 14.443C12.8098 14.443 13.4334 13.3479 13.1749 12.5266L15.8821 9.82701C16.6958 10.078 17.7908 9.46199 17.7908 8.35933C17.7908 7.52282 17.1064 6.83841 16.2699 6.83841Z" fill="#5576D1"/>
<path d="M11.7072 7.59887L12.422 6.02473L13.9885 5.3175L12.422 4.61028L11.7072 3.03613L11.0076 4.61028L9.42581 5.3175L11.0076 6.02473L11.7072 7.59887Z" fill="#5576D1"/>
<path d="M2.96193 9.11978L3.34216 7.59887L4.86307 7.21864L3.34216 6.83841L2.96193 5.3175L2.5817 6.83841L1.06079 7.21864L2.5817 7.59887L2.96193 9.11978Z" fill="#5576D1"/>
</g>
</g>
</svg>
