<svg width="62" height="67" viewBox="0 0 62 67" fill="none" xmlns="http://www.w3.org/2000/svg">
<g filter="url(#filter0_d_5275_101103)">
<path d="M36.416 14.0044L53.3035 23.7544V43.2544L36.416 53.0044L19.5285 43.2544V23.7544L36.416 14.0044Z" fill="#F4F4FB" stroke="#3B82F6" stroke-width="1.36585"/>
<path fill-rule="evenodd" clip-rule="evenodd" d="M29.1887 34.6506C26.9878 34.6506 25.2037 36.4347 25.2037 38.6356C25.2037 40.8364 26.9878 42.6205 29.1887 42.6205C31.3895 42.6205 33.1736 40.8364 33.1736 38.6356C33.1736 36.4347 31.3895 34.6506 29.1887 34.6506ZM23.7412 38.6356C23.7412 35.627 26.1801 33.1881 29.1887 33.1881C32.1972 33.1881 34.6361 35.627 34.6361 38.6356C34.6361 41.6441 32.1972 44.083 29.1887 44.083C26.1801 44.083 23.7412 41.6441 23.7412 38.6356Z" fill="#1E22AA"/>
<path fill-rule="evenodd" clip-rule="evenodd" d="M44.1425 34.6506C41.9417 34.6506 40.1575 36.4347 40.1575 38.6356C40.1575 40.8364 41.9417 42.6205 44.1425 42.6205C46.3433 42.6205 48.1274 40.8364 48.1274 38.6356C48.1274 36.4347 46.3433 34.6506 44.1425 34.6506ZM38.695 38.6356C38.695 35.627 41.1339 33.1881 44.1425 33.1881C47.151 33.1881 49.5899 35.627 49.5899 38.6356C49.5899 41.6441 47.151 44.083 44.1425 44.083C41.1339 44.083 38.695 41.6441 38.695 38.6356Z" fill="#1E22AA"/>
<path d="M41.0367 24.6019C41.0367 25.5548 40.2642 26.3273 39.3112 26.3273C38.3583 26.3273 37.5858 25.5548 37.5858 24.6019C37.5858 23.649 38.3583 22.8765 39.3112 22.8765C40.2642 22.8765 41.0367 23.649 41.0367 24.6019Z" fill="#1E22AA"/>
<path d="M35.6462 25.4933L30.0998 30.9488C29.7606 31.2824 29.8394 31.8489 30.2568 32.0773L35.1278 34.7425C35.3667 34.8733 35.5152 35.1239 35.5152 35.3962V39.0381C35.5152 39.7051 36.056 40.2459 36.7231 40.2459C37.3901 40.2459 37.9309 39.7051 37.9309 39.0381V33.2045C37.9309 32.9357 37.7851 32.688 37.5501 32.5575L35.0038 31.1428C34.9162 31.0942 34.9026 30.9738 34.977 30.9068L37.088 29.0069C37.1079 28.989 37.1391 28.9927 37.1543 29.0149L38.4099 30.85C38.542 31.0431 38.7609 31.1586 38.9949 31.1586H42.9346C43.3476 31.1586 43.6823 30.8238 43.6823 30.4109C43.6823 29.998 43.3476 29.6632 42.9346 29.6632H39.777C39.7734 29.6632 39.7701 29.6614 39.7682 29.6585L37.0545 25.6348C36.7326 25.1576 36.0566 25.0896 35.6462 25.4933Z" fill="#1E22AA"/>
</g>
<defs>
<filter id="filter0_d_5275_101103" x="-1.08398" y="0.21582" width="65" height="66.5771" filterUnits="userSpaceOnUse" color-interpolation-filters="sRGB">
<feFlood flood-opacity="0" result="BackgroundImageFix"/>
<feColorMatrix in="SourceAlpha" type="matrix" values="0 0 0 0 0 0 0 0 0 0 0 0 0 0 0 0 0 0 127 0" result="hardAlpha"/>
<feMorphology radius="2" operator="dilate" in="SourceAlpha" result="effect1_dropShadow_5275_101103"/>
<feOffset dx="-5"/>
<feGaussianBlur stdDeviation="5.5"/>
<feComposite in2="hardAlpha" operator="out"/>
<feColorMatrix type="matrix" values="0 0 0 0 0 0 0 0 0 0 0 0 0 0 0 0 0 0 0.25 0"/>
<feBlend mode="normal" in2="BackgroundImageFix" result="effect1_dropShadow_5275_101103"/>
<feBlend mode="normal" in="SourceGraphic" in2="effect1_dropShadow_5275_101103" result="shape"/>
</filter>
</defs>
</svg>
