<svg width="13" height="13" viewBox="0 0 13 13" fill="none" xmlns="http://www.w3.org/2000/svg">
<g id="ic20-info">
<path id="Icon" fill-rule="evenodd" clip-rule="evenodd" d="M6.50033 1.2915C9.37681 1.2915 11.7087 3.62335 11.7087 6.49984C11.7087 9.37632 9.37681 11.7082 6.50033 11.7082C3.62384 11.7082 1.29199 9.37632 1.29199 6.49984C1.29199 3.62335 3.62384 1.2915 6.50033 1.2915ZM6.50041 2.33313C4.19922 2.33313 2.33374 4.19861 2.33374 6.4998C2.33374 8.80098 4.19922 10.6665 6.50041 10.6665C8.80159 10.6665 10.6671 8.80098 10.6671 6.4998C10.6671 4.19861 8.80159 2.33313 6.50041 2.33313ZM6.5002 5.45813C6.78785 5.45813 7.02104 5.69131 7.02104 5.97896V9.10396C7.02104 9.39161 6.78785 9.6248 6.5002 9.6248C6.21256 9.6248 5.97937 9.39161 5.97937 9.10396V5.97896C5.97937 5.69131 6.21256 5.45813 6.5002 5.45813ZM6.5002 3.375C6.78785 3.375 7.02104 3.60818 7.02104 3.89583C7.02104 4.18348 6.78785 4.41667 6.5002 4.41667C6.21256 4.41667 5.97937 4.18348 5.97937 3.89583C5.97937 3.60818 6.21256 3.375 6.5002 3.375Z" fill="white"/>
</g>
</svg>
