<svg width="37" height="39" viewBox="0 0 37 39" fill="none" xmlns="http://www.w3.org/2000/svg">
<path d="M17.5 1.57735C18.1188 1.22008 18.8812 1.22008 19.5 1.57735L33.5215 9.67265C34.1403 10.0299 34.5215 10.6902 34.5215 11.4047V27.5953C34.5215 28.3098 34.1403 28.9701 33.5215 29.3274L19.5 37.4226C18.8812 37.7799 18.1188 37.7799 17.5 37.4226L3.47853 29.3274C2.85973 28.9701 2.47853 28.3098 2.47853 27.5953V11.4047C2.47853 10.6902 2.85973 10.0299 3.47853 9.67265L17.5 1.57735Z" fill="#F4F4FB" stroke="#3B82F6" stroke-width="1.36585"/>
<path fill-rule="evenodd" clip-rule="evenodd" d="M11.6427 20.5873C9.55474 20.5873 7.86211 22.28 7.86211 24.3679C7.86211 26.4559 9.55474 28.1485 11.6427 28.1485C13.7307 28.1485 15.4233 26.4559 15.4233 24.3679C15.4233 22.28 13.7307 20.5873 11.6427 20.5873ZM6.47461 24.3679C6.47461 21.5137 8.78844 19.1998 11.6427 19.1998C14.497 19.1998 16.8108 21.5137 16.8108 24.3679C16.8108 27.2222 14.497 29.536 11.6427 29.536C8.78844 29.536 6.47461 27.2222 6.47461 24.3679Z" fill="#1E22AA"/>
<path fill-rule="evenodd" clip-rule="evenodd" d="M25.8297 20.5873C23.7417 20.5873 22.0491 22.28 22.0491 24.3679C22.0491 26.4559 23.7417 28.1485 25.8297 28.1485C27.9176 28.1485 29.6102 26.4559 29.6102 24.3679C29.6102 22.28 27.9176 20.5873 25.8297 20.5873ZM20.6616 24.3679C20.6616 21.5137 22.9754 19.1998 25.8297 19.1998C28.6839 19.1998 30.9977 21.5137 30.9977 24.3679C30.9977 27.2222 28.6839 29.536 25.8297 29.536C22.9754 29.536 20.6616 27.2222 20.6616 24.3679Z" fill="#1E22AA"/>
<path d="M22.8831 11.0539C22.8831 11.958 22.1502 12.6909 21.2462 12.6909C20.3421 12.6909 19.6092 11.958 19.6092 11.0539C19.6092 10.1499 20.3421 9.41699 21.2462 9.41699C22.1502 9.41699 22.8831 10.1499 22.8831 11.0539Z" fill="#1E22AA"/>
<path d="M17.7691 11.8996L12.5071 17.0753C12.1853 17.3919 12.26 17.9293 12.6561 18.146L17.2773 20.6746C17.5039 20.7986 17.6448 21.0363 17.6448 21.2947V24.7498C17.6448 25.3826 18.1579 25.8957 18.7907 25.8957C19.4236 25.8957 19.9366 25.3826 19.9366 24.7498V19.2154C19.9366 18.9604 19.7983 18.7254 19.5754 18.6015L17.1596 17.2594C17.0765 17.2133 17.0636 17.0991 17.1342 17.0355L19.1369 15.2331C19.1559 15.216 19.1854 15.2196 19.1998 15.2406L20.3911 16.9816C20.5164 17.1648 20.7241 17.2744 20.9461 17.2744H24.6837C25.0755 17.2744 25.3931 16.9568 25.3931 16.565C25.3931 16.1733 25.0755 15.8557 24.6837 15.8557H21.688C21.6847 15.8557 21.6815 15.854 21.6797 15.8512L19.1051 12.0338C18.7998 11.5811 18.1584 11.5167 17.7691 11.8996Z" fill="#1E22AA"/>
</svg>
