<svg width="38" height="40" viewBox="0 0 38 40" fill="none" xmlns="http://www.w3.org/2000/svg">
<path d="M18.9331 1L35.3297 10.4666V29.3997L18.9331 38.8662L2.53655 29.3997V10.4666L18.9331 1Z" fill="#E7F3FF" stroke="#1E22AA" stroke-width="1.23065" stroke-linejoin="round"/>
<g clip-path="url(#clip0_5727_8357)">
<path d="M19.8087 22.3997C19.8087 21.9155 19.4154 21.5259 18.9312 21.5259C18.4469 21.5259 18.0537 21.9155 18.0537 22.3997C18.0537 22.6324 18.1462 22.8556 18.3107 23.0202C18.4753 23.1847 18.6985 23.2772 18.9312 23.2772" stroke="#1E22AA" stroke-width="0.728196" stroke-miterlimit="10" stroke-linecap="round" stroke-linejoin="round"/>
<path d="M18.0537 24.1542C18.0537 24.6348 18.4469 25.028 18.9312 25.028M18.9312 25.028C19.4154 25.028 19.8087 24.6348 19.8087 24.1542C19.8087 23.6699 19.4154 23.2767 18.9312 23.2767M18.9312 25.028V25.4722M18.9312 21.0815V21.5257" stroke="#1E22AA" stroke-width="0.728196" stroke-miterlimit="10" stroke-linecap="round" stroke-linejoin="round"/>
<path d="M18.9348 26.6088C20.7751 26.6088 22.267 25.1169 22.267 23.2766C22.267 21.4362 20.7751 19.9443 18.9348 19.9443C17.0944 19.9443 15.6025 21.4362 15.6025 23.2766C15.6025 25.1169 17.0944 26.6088 18.9348 26.6088Z" stroke="#1E22AA" stroke-width="0.728196" stroke-miterlimit="10" stroke-linecap="round" stroke-linejoin="round"/>
<path d="M26.6244 17.9839H11.239C10.9618 17.9839 10.6959 18.094 10.4998 18.29C10.3037 18.4861 10.1935 18.7519 10.1934 19.0292V27.2393C10.1934 27.5166 10.3035 27.7826 10.4996 27.9787C10.6957 28.1748 10.9617 28.285 11.239 28.285H26.6244C26.9017 28.285 27.1677 28.1748 27.3638 27.9787C27.5599 27.7826 27.6701 27.5166 27.6701 27.2393V19.0292C27.67 18.7519 27.5598 18.4861 27.3637 18.29C27.1676 18.094 26.9017 17.9839 26.6244 17.9839Z" stroke="#1E22AA" stroke-width="0.728196" stroke-miterlimit="10" stroke-linecap="round" stroke-linejoin="round"/>
<path d="M26.6283 14.2964H11.243C11.1056 14.2964 10.9696 14.3234 10.8427 14.376C10.7158 14.4286 10.6005 14.5057 10.5034 14.6028C10.4063 14.6999 10.3293 14.8152 10.2768 14.9422C10.2242 15.0691 10.1972 15.2051 10.1973 15.3424V27.239C10.1973 27.5163 10.3074 27.7823 10.5035 27.9784C10.6996 28.1745 10.9656 28.2847 11.243 28.2847H26.6283C26.7656 28.2847 26.9016 28.2576 27.0285 28.205C27.1554 28.1525 27.2707 28.0754 27.3678 27.9783C27.4649 27.8811 27.542 27.7658 27.5945 27.6389C27.647 27.512 27.674 27.376 27.674 27.2386V15.3421C27.6739 15.0648 27.5637 14.7989 27.3676 14.6029C27.1715 14.4069 26.9056 14.2964 26.6283 14.2964Z" stroke="#1E22AA" stroke-width="0.728196" stroke-miterlimit="10" stroke-linecap="round" stroke-linejoin="round"/>
<path d="M21.2585 14.2966H16.6162V12.3403C16.6162 11.9216 16.9559 11.5815 17.3746 11.5815H20.5C20.9188 11.5815 21.2585 11.9212 21.2585 12.3403V14.2974V14.2966Z" stroke="#1E22AA" stroke-width="0.728196" stroke-miterlimit="10" stroke-linecap="round" stroke-linejoin="round"/>
</g>
<defs>
<clipPath id="clip0_5727_8357">
<rect width="18.9331" height="18.9331" fill="white" transform="translate(9.4668 10.4668)"/>
</clipPath>
</defs>
</svg>
