<svg width="81" height="85" viewBox="0 0 81 85" fill="none" xmlns="http://www.w3.org/2000/svg">
<path d="M38.5 3.1547C39.7376 2.44017 41.2624 2.44017 42.5 3.1547L73.574 21.0953C74.8116 21.8098 75.574 23.1303 75.574 24.5594V60.4406C75.574 61.8697 74.8116 63.1902 73.574 63.9047L42.5 81.8453C41.2624 82.5598 39.7376 82.5598 38.5 81.8453L7.42597 63.9047C6.18837 63.1902 5.42597 61.8697 5.42597 60.4406V24.5594C5.42597 23.1303 6.18837 21.8098 7.42597 21.0953L38.5 3.1547Z" fill="#F4F4FB" stroke="#0D99FF" stroke-width="4"/>
<path fill-rule="evenodd" clip-rule="evenodd" d="M25.4892 44.8808C20.9183 44.8808 17.2128 48.5863 17.2128 53.1572C17.2128 57.7281 20.9183 61.4336 25.4892 61.4336C30.0602 61.4336 33.7656 57.7281 33.7656 53.1572C33.7656 48.5863 30.0602 44.8808 25.4892 44.8808ZM14.1753 53.1572C14.1753 46.9087 19.2407 41.8433 25.4892 41.8433C31.7377 41.8433 36.8031 46.9087 36.8031 53.1572C36.8031 59.4057 31.7377 64.4711 25.4892 64.4711C19.2407 64.4711 14.1753 59.4057 14.1753 53.1572Z" fill="#1E22AA"/>
<path fill-rule="evenodd" clip-rule="evenodd" d="M56.5472 44.8808C51.9762 44.8808 48.2707 48.5863 48.2707 53.1572C48.2707 57.7281 51.9762 61.4336 56.5472 61.4336C61.1181 61.4336 64.8236 57.7281 64.8236 53.1572C64.8236 48.5863 61.1181 44.8808 56.5472 44.8808ZM45.2332 53.1572C45.2332 46.9087 50.2987 41.8433 56.5472 41.8433C62.7957 41.8433 67.8611 46.9087 67.8611 53.1572C67.8611 59.4057 62.7957 64.4711 56.5472 64.4711C50.2987 64.4711 45.2332 59.4057 45.2332 53.1572Z" fill="#1E22AA"/>
<path d="M50.0966 24.0104C50.0966 25.9895 48.4922 27.594 46.513 27.594C44.5339 27.594 42.9294 25.9895 42.9294 24.0104C42.9294 22.0312 44.5339 20.4268 46.513 20.4268C48.4922 20.4268 50.0966 22.0312 50.0966 24.0104Z" fill="#1E22AA"/>
<path d="M38.9011 25.8616L27.3816 37.1923C26.677 37.8853 26.8407 39.0617 27.7076 39.5361L37.8244 45.0717C38.3205 45.3432 38.6291 45.8637 38.6291 46.4293V53.9932C38.6291 55.3786 39.7522 56.5017 41.1376 56.5017C42.523 56.5017 43.6461 55.3786 43.6461 53.9932V41.8773C43.6461 41.319 43.3434 40.8046 42.8554 40.5335L37.5667 37.5953C37.3849 37.4943 37.3566 37.2443 37.5112 37.1052L41.8955 33.1593C41.9369 33.122 42.0017 33.1297 42.0332 33.1757L44.641 36.9872C44.9155 37.3883 45.3701 37.6281 45.8561 37.6281H54.0385C54.8962 37.6281 55.5914 36.9328 55.5914 36.0752C55.5914 35.2175 54.8962 34.5223 54.0385 34.5223H47.4804C47.473 34.5223 47.4661 34.5186 47.462 34.5125L41.8259 26.1556C41.1575 25.1644 39.7534 25.0233 38.9011 25.8616Z" fill="#1E22AA"/>
</svg>
