<svg width="24" height="25" viewBox="0 0 24 25" fill="none" xmlns="http://www.w3.org/2000/svg">
<path d="M20 2.5H8C6.9 2.5 6 3.4 6 4.5V16.5C6 17.6 6.9 18.5 8 18.5H20C21.1 18.5 22 17.6 22 16.5V4.5C22 3.4 21.1 2.5 20 2.5ZM11.5 10C11.5 10.83 10.83 11.5 10 11.5H9V13.5H7.5V7.5H10C10.83 7.5 11.5 8.17 11.5 9V10ZM16.5 12C16.5 12.83 15.83 13.5 15 13.5H12.5V7.5H15C15.83 7.5 16.5 8.17 16.5 9V12ZM20.5 9H19V10H20.5V11.5H19V13.5H17.5V7.5H20.5V9ZM9 10H10V9H9V10ZM4 6.5H2V20.5C2 21.6 2.9 22.5 4 22.5H18V20.5H4V6.5ZM14 12H15V9H14V12Z" fill="#1E22AA"/>
</svg>
