<svg width="56" height="58" viewBox="0 0 56 58" fill="none" xmlns="http://www.w3.org/2000/svg">
<path d="M28 1L52.2487 15V43L28 57L3.75129 43V15L28 1Z" fill="#E7F3FF" stroke="#3B82F6" stroke-width="1.82" stroke-linejoin="round"/>
<path d="M29.2966 32.6468C29.2966 31.9306 28.715 31.3545 27.9989 31.3545C27.2827 31.3545 26.7012 31.9306 26.7012 32.6468C26.7012 32.991 26.8379 33.321 27.0813 33.5644C27.3246 33.8078 27.6547 33.9445 27.9989 33.9445" stroke="#3B82F6" stroke-width="1.07692" stroke-miterlimit="10" stroke-linecap="round" stroke-linejoin="round"/>
<path d="M26.7012 35.2418C26.7012 35.9526 27.2827 36.5341 27.9989 36.5341M27.9989 36.5341C28.715 36.5341 29.2966 35.9526 29.2966 35.2418C29.2966 34.5257 28.715 33.9441 27.9989 33.9441M27.9989 36.5341V37.1911M27.9989 30.6978V31.3547" stroke="#3B82F6" stroke-width="1.07692" stroke-miterlimit="10" stroke-linecap="round" stroke-linejoin="round"/>
<path d="M28.0003 38.8721C30.7219 38.8721 32.9283 36.6658 32.9283 33.9441C32.9283 31.2225 30.7219 29.0161 28.0003 29.0161C25.2786 29.0161 23.0723 31.2225 23.0723 33.9441C23.0723 36.6658 25.2786 38.8721 28.0003 38.8721Z" stroke="#3B82F6" stroke-width="1.07692" stroke-miterlimit="10" stroke-linecap="round" stroke-linejoin="round"/>
<path d="M39.3768 26.1172H16.6236C16.2136 26.1172 15.8203 26.28 15.5303 26.5699C15.2403 26.8598 15.0773 27.2531 15.0771 27.6631V39.8049C15.0771 40.215 15.2401 40.6084 15.5301 40.8984C15.8201 41.1884 16.2135 41.3513 16.6236 41.3513H39.3768C39.787 41.3513 40.1803 41.1884 40.4704 40.8984C40.7604 40.6084 40.9233 40.215 40.9233 39.8049V27.6631C40.9232 27.2531 40.7602 26.8598 40.4702 26.5699C40.1802 26.28 39.7869 26.1172 39.3768 26.1172Z" stroke="#3B82F6" stroke-width="1.07692" stroke-miterlimit="10" stroke-linecap="round" stroke-linejoin="round"/>
<path d="M39.3759 20.6646H16.6226C16.4195 20.6646 16.2184 20.7046 16.0307 20.7823C15.843 20.8601 15.6725 20.974 15.5289 21.1177C15.3853 21.2613 15.2714 21.4319 15.1937 21.6196C15.116 21.8073 15.0761 22.0084 15.0762 22.2116V39.8052C15.0762 40.2154 15.2391 40.6087 15.5291 40.8988C15.8191 41.1888 16.2125 41.3517 16.6226 41.3517H39.3759C39.579 41.3517 39.7801 41.3117 39.9678 41.2339C40.1555 41.1562 40.326 41.0422 40.4696 40.8986C40.6132 40.7549 40.7271 40.5844 40.8048 40.3967C40.8824 40.209 40.9224 40.0078 40.9223 39.8047V22.211C40.9222 21.801 40.7592 21.4077 40.4692 21.1178C40.1792 20.8279 39.7859 20.6646 39.3759 20.6646Z" stroke="#3B82F6" stroke-width="1.07692" stroke-miterlimit="10" stroke-linecap="round" stroke-linejoin="round"/>
<path d="M31.4328 20.6647H24.5674V17.7716C24.5674 17.1523 25.0698 16.6494 25.689 16.6494H30.3112C30.9304 16.6494 31.4328 17.1518 31.4328 17.7716V20.6658V20.6647Z" stroke="#3B82F6" stroke-width="1.07692" stroke-miterlimit="10" stroke-linecap="round" stroke-linejoin="round"/>
</svg>
