<svg width="81" height="85" viewBox="0 0 81 85" fill="none" xmlns="http://www.w3.org/2000/svg">
<path d="M38.5 3.1547C39.7376 2.44017 41.2624 2.44017 42.5 3.1547L73.574 21.0953C74.8116 21.8098 75.574 23.1303 75.574 24.5594V60.4406C75.574 61.8697 74.8116 63.1902 73.574 63.9047L42.5 81.8453C41.2624 82.5598 39.7376 82.5598 38.5 81.8453L7.42597 63.9047C6.18837 63.1902 5.42597 61.8697 5.42597 60.4406V24.5594C5.42597 23.1303 6.18837 21.8098 7.42597 21.0953L38.5 3.1547Z" fill="#F4F4FB" stroke="#0D99FF" stroke-width="4"/>
<path fill-rule="evenodd" clip-rule="evenodd" d="M25.4897 44.8808C20.9188 44.8808 17.2133 48.5863 17.2133 53.1572C17.2133 57.7281 20.9188 61.4336 25.4897 61.4336C30.0606 61.4336 33.7661 57.7281 33.7661 53.1572C33.7661 48.5863 30.0606 44.8808 25.4897 44.8808ZM14.1758 53.1572C14.1758 46.9087 19.2412 41.8433 25.4897 41.8433C31.7382 41.8433 36.8036 46.9087 36.8036 53.1572C36.8036 59.4057 31.7382 64.4711 25.4897 64.4711C19.2412 64.4711 14.1758 59.4057 14.1758 53.1572Z" fill="#1E22AA"/>
<path fill-rule="evenodd" clip-rule="evenodd" d="M56.5476 44.8808C51.9767 44.8808 48.2712 48.5863 48.2712 53.1572C48.2712 57.7281 51.9767 61.4336 56.5476 61.4336C61.1186 61.4336 64.8241 57.7281 64.8241 53.1572C64.8241 48.5863 61.1186 44.8808 56.5476 44.8808ZM45.2337 53.1572C45.2337 46.9087 50.2991 41.8433 56.5476 41.8433C62.7962 41.8433 67.8616 46.9087 67.8616 53.1572C67.8616 59.4057 62.7962 64.4711 56.5476 64.4711C50.2991 64.4711 45.2337 59.4057 45.2337 53.1572Z" fill="#1E22AA"/>
<path d="M50.0971 24.0104C50.0971 25.9895 48.4927 27.594 46.5135 27.594C44.5344 27.594 42.9299 25.9895 42.9299 24.0104C42.9299 22.0312 44.5344 20.4268 46.5135 20.4268C48.4927 20.4268 50.0971 22.0312 50.0971 24.0104Z" fill="#1E22AA"/>
<path d="M38.9016 25.8616L27.3821 37.1923C26.6775 37.8853 26.8412 39.0617 27.7081 39.5361L37.8249 45.0717C38.321 45.3432 38.6296 45.8637 38.6296 46.4293V53.9932C38.6296 55.3786 39.7527 56.5017 41.1381 56.5017C42.5235 56.5017 43.6466 55.3786 43.6466 53.9932V41.8773C43.6466 41.319 43.3439 40.8046 42.8559 40.5335L37.5672 37.5953C37.3854 37.4943 37.3571 37.2443 37.5117 37.1052L41.896 33.1593C41.9374 33.122 42.0022 33.1297 42.0337 33.1757L44.6415 36.9872C44.9159 37.3883 45.3706 37.6281 45.8566 37.6281H54.039C54.8967 37.6281 55.5919 36.9328 55.5919 36.0752C55.5919 35.2175 54.8967 34.5223 54.039 34.5223H47.4808C47.4735 34.5223 47.4666 34.5186 47.4625 34.5125L41.8264 26.1556C41.158 25.1644 39.7539 25.0233 38.9016 25.8616Z" fill="#1E22AA"/>
</svg>
