<svg width="41" height="41" viewBox="0 0 41 41" fill="none" xmlns="http://www.w3.org/2000/svg">
<rect x="0.500244" y="0.723877" width="40" height="40" rx="20" fill="#5AC4B1"/>
<path d="M19.5046 12.2725C19.818 11.308 21.1825 11.308 21.4959 12.2725L22.8507 16.442C22.9908 16.8733 23.3928 17.1654 23.8463 17.1654H28.2304C29.2445 17.1654 29.6662 18.4631 28.8457 19.0592L25.2989 21.6361C24.932 21.9027 24.7785 22.3752 24.9186 22.8065L26.2734 26.976C26.5868 27.9405 25.4828 28.7425 24.6624 28.1465L21.1156 25.5696C20.7487 25.303 20.2519 25.303 19.8849 25.5696L16.3382 28.1465C15.5177 28.7425 14.4138 27.9405 14.7272 26.976L16.0819 22.8065C16.2221 22.3752 16.0685 21.9027 15.7016 21.6361L12.1549 19.0592C11.3344 18.4631 11.7561 17.1654 12.7702 17.1654H17.1543C17.6078 17.1654 18.0097 16.8733 18.1499 16.442L19.5046 12.2725Z" fill="white"/>
</svg>
