<svg width="19" height="19" viewBox="0 0 19 19" fill="none" xmlns="http://www.w3.org/2000/svg">
<path d="M10.9007 7.94144L9.34214 7.23026L10.9007 6.51908L11.6119 4.96052L12.3231 6.51908L13.8816 7.23026L12.3231 7.94144L11.6119 9.5L10.9007 7.94144ZM3.28951 11.0132L4.0007 9.4546L5.55925 8.74342L4.0007 8.03223L3.28951 6.47368L2.57833 8.03223L1.01978 8.74342L2.57833 9.4546L3.28951 11.0132ZM6.69412 7.23026L7.51879 5.40691L9.34214 4.58223L7.51879 3.75756L6.69412 1.93421L5.86945 3.75756L4.04609 4.58223L5.86945 5.40691L6.69412 7.23026ZM3.6678 15.9309L8.20728 11.3839L11.2336 14.4102L17.6645 7.1773L16.5977 6.11052L11.2336 12.1405L8.20728 9.11414L2.53293 14.7961L3.6678 15.9309Z" fill="#49A197"/>
</svg>
