<svg width="19" height="19" viewBox="0 0 19 19" fill="none" xmlns="http://www.w3.org/2000/svg">
<path d="M9.34216 1.93421C5.16584 1.93421 1.77637 5.32368 1.77637 9.5C1.77637 13.6763 5.16584 17.0658 9.34216 17.0658C13.5185 17.0658 16.9079 13.6763 16.9079 9.5C16.9079 5.32368 13.5185 1.93421 9.34216 1.93421ZM10.0079 13.8579V14.7961H8.68393V13.8201C8.12406 13.6839 6.87571 13.2375 6.39906 11.5806L7.64742 11.0737C7.69281 11.2401 8.08624 12.6549 9.46321 12.6549C10.1668 12.6549 10.9612 12.2918 10.9612 11.4368C10.9612 10.7105 10.4316 10.3322 9.23624 9.90098C8.404 9.60592 6.7017 9.12171 6.7017 7.39671C6.7017 7.32105 6.70926 5.58092 8.68393 5.15723V4.20394H10.0079V5.1421C11.4001 5.38421 11.907 6.49638 12.0204 6.82927L10.8251 7.33618C10.7418 7.07138 10.3787 6.32237 9.38755 6.32237C8.85795 6.32237 8.01814 6.6023 8.01814 7.37401C8.01814 8.09276 8.6688 8.36513 10.0155 8.81151C11.8313 9.43947 12.2928 10.3625 12.2928 11.4217C12.2928 13.4115 10.4014 13.7898 10.0079 13.8579Z" fill="#49A197"/>
</svg>
