<svg width="19" height="19" viewBox="0 0 19 19" fill="none" xmlns="http://www.w3.org/2000/svg">
<path d="M8.58558 13.2829H10.0987V12.5263H10.8553C11.2714 12.5263 11.6119 12.1859 11.6119 11.7697V9.50001C11.6119 9.08389 11.2714 8.74343 10.8553 8.74343H8.58558V7.98685H11.6119V6.4737H10.0987V5.71712H8.58558V6.4737H7.829C7.41288 6.4737 7.07242 6.81416 7.07242 7.23028V9.50001C7.07242 9.91613 7.41288 10.2566 7.829 10.2566H10.0987V11.0132H7.07242V12.5263H8.58558V13.2829ZM15.3948 3.44738H3.28953C2.44972 3.44738 1.78393 4.12074 1.78393 4.96054L1.77637 14.0395C1.77637 14.8793 2.44972 15.5526 3.28953 15.5526H15.3948C16.2346 15.5526 16.9079 14.8793 16.9079 14.0395V4.96054C16.9079 4.12074 16.2346 3.44738 15.3948 3.44738ZM15.3948 14.0395H3.28953V4.96054H15.3948V14.0395Z" fill="#49A197"/>
</svg>
