<svg width="19" height="19" viewBox="0 0 19 19" fill="none" xmlns="http://www.w3.org/2000/svg">
<path d="M7.21617 5.22533C5.67275 6.95789 4.61354 9.44704 4.51518 9.68158L1.77637 8.50888L4.84051 5.44474C5.1961 5.08914 5.71058 4.93026 6.20992 5.02862L7.21617 5.22533ZM8.7142 13.2829C8.7142 13.2829 11.5438 12.1102 13.1704 10.4836C17.256 6.39803 16.5751 3.20526 16.3556 2.48651C15.6369 2.25954 12.4441 1.58618 8.3586 5.67171C6.73196 7.29836 5.55926 10.128 5.55926 10.128L8.7142 13.2829ZM13.6168 11.626C11.8843 13.1694 9.39512 14.2286 9.16058 14.327L10.3333 17.0658L13.3974 14.0016C13.753 13.6461 13.9119 13.1316 13.8135 12.6322L13.6168 11.626ZM7.07242 14.0395C7.07242 14.6674 6.81518 15.2349 6.40663 15.6434C5.51387 16.5362 1.77637 17.0658 1.77637 17.0658C1.77637 17.0658 2.30597 13.3283 3.19874 12.4355C3.60729 12.027 4.17472 11.7697 4.80268 11.7697C6.0586 11.7697 7.07242 12.7836 7.07242 14.0395ZM10.0987 7.23026C10.0987 6.39803 10.7797 5.71711 11.6119 5.71711C12.4441 5.71711 13.1251 6.39803 13.1251 7.23026C13.1251 8.0625 12.4441 8.74342 11.6119 8.74342C10.7797 8.74342 10.0987 8.0625 10.0987 7.23026Z" fill="#49A197"/>
</svg>
