<svg width="19" height="19" viewBox="0 0 19 19" fill="none" xmlns="http://www.w3.org/2000/svg">
<path d="M12.3685 8.89473V4.05263H6.31583V6.47368H3.89478V14.9474H8.73688V12.5263H9.94741V14.9474H14.7895V8.89473H12.3685ZM6.31583 13.7368H5.1053V12.5263H6.31583V13.7368ZM6.31583 11.3158H5.1053V10.1053H6.31583V11.3158ZM6.31583 8.89473H5.1053V7.68421H6.31583V8.89473ZM8.73688 11.3158H7.52635V10.1053H8.73688V11.3158ZM8.73688 8.89473H7.52635V7.68421H8.73688V8.89473ZM8.73688 6.47368H7.52635V5.26315H8.73688V6.47368ZM11.1579 11.3158H9.94741V10.1053H11.1579V11.3158ZM11.1579 8.89473H9.94741V7.68421H11.1579V8.89473ZM11.1579 6.47368H9.94741V5.26315H11.1579V6.47368ZM13.579 13.7368H12.3685V12.5263H13.579V13.7368ZM13.579 11.3158H12.3685V10.1053H13.579V11.3158Z" fill="#49A197"/>
</svg>
